<?xml version="1.0" encoding="utf-8"?>
<!-- Generator: Adobe Illustrator 16.0.1, SVG Export Plug-In . SVG Version: 6.00 Build 0)  -->
<!DOCTYPE svg PUBLIC "-//W3C//DTD SVG 1.1//EN" "http://www.w3.org/Graphics/SVG/1.1/DTD/svg11.dtd">
<svg version="1.1" id="Layer_1" xmlns="http://www.w3.org/2000/svg" xmlns:xlink="http://www.w3.org/1999/xlink" x="0px" y="0px"
	 width="270.546px" height="120px" viewBox="70.5 109.5 270.546 120" enable-background="new 70.5 109.5 270.546 120"
	 xml:space="preserve">
<g>
	<ellipse fill="#FFFFFF" cx="272.984" cy="172.577" rx="55.616" ry="33.915"/>
	<polygon fill="#FFFFFF" points="251.307,203.819 225.049,189.99 221.84,214.173 	"/>
</g>
<g>
	<ellipse fill="#FFFFFF" cx="137.913" cy="157.418" rx="55.617" ry="33.915"/>
	<polygon fill="#FFFFFF" points="159.59,188.66 185.848,174.831 189.057,199.014 	"/>
</g>
<path id="sms-2-icon" fill="#7E7E7E" d="M208.381,222.128c5.168-7.833,10.906-18.586,10.611-26.083
	c-6.961-6.397-10.896-14.642-10.896-23.039c0-23.675,30.142-40.984,63.888-40.984c33.535,0,63.888,17.18,63.888,40.984
	c0,24.788-35.84,47.936-85.014,38.736C241.928,215.948,222.234,220.202,208.381,222.128z M271.984,141.502
	c-28.368,0-51.446,14.132-51.446,31.504c0,9.141,5.177,14.897,12.485,20.573c-1.485,8.427-5.052,15.753-5.052,15.753
	s10.544-2.128,22.524-7.458c45.84,9.262,72.935-10.893,72.935-28.868C323.431,155.634,300.352,141.502,271.984,141.502z"/>
<path id="sms-2-icon_1_" fill="#535353" d="M161.138,196.388c-49.174,9.201-85.014-13.948-85.014-38.735
	c0-23.805,30.353-40.984,63.888-40.984c33.746,0,63.888,17.31,63.888,40.984c0,8.397-3.934,16.642-10.896,23.039
	c-0.294,7.497,5.444,18.249,10.612,26.083C189.764,204.848,170.069,200.595,161.138,196.388z M88.566,157.652
	c0,17.975,27.095,38.129,72.934,28.868c11.98,5.331,22.525,7.458,22.525,7.458s-3.566-7.326-5.052-15.753
	c7.308-5.676,12.484-11.432,12.484-20.573c0-17.372-23.078-31.504-51.446-31.504C111.645,126.148,88.566,140.281,88.566,157.652z"/>
<g>
	<g>
		<path fill="#1399CD" d="M109.247,167.146c-0.111,0.625-0.166,0.937-0.277,1.562c0,0-0.36,2.051-6.48,0.728
			c-6.383-1.38-5.786-3.386-5.786-3.386c0.21-0.819,0.316-1.229,0.526-2.049c0.478-1.859,0.716-2.79,1.193-4.648
			c1.368-5.328,2.052-7.991,3.42-13.318c0.395-1.537,0.591-2.306,0.986-3.842c0,0,0.472-1.807,5.549-0.704
			c5.222,1.135,4.895,2.968,4.895,2.968c-0.113,0.64-0.17,0.959-0.283,1.6c-1.377-0.244-2.064-0.374-3.436-0.652
			c0.078-0.385,0.116-0.578,0.194-0.963c0.098-0.481-0.815-0.898-1.698-1.09c-0.956-0.207-1.887-0.19-1.997,0.288
			c-2.092,9.07-3.139,13.605-5.232,22.676c-0.119,0.516,0.858,1.013,1.982,1.256c1.037,0.225,2.215,0.194,2.32-0.325
			c0.069-0.341,0.104-0.51,0.172-0.851C106.874,166.715,107.663,166.865,109.247,167.146z"/>
		<path fill="#1399CD" d="M125.83,170.814c0,0-0.151,2.076-6.349,1.39c-6.464-0.715-6.073-2.771-6.073-2.771
			c0.125-0.837,0.188-1.254,0.312-2.091c0.284-1.898,0.426-2.849,0.71-4.747c0.807-5.396,1.21-8.092,2.017-13.487
			c0.241-1.614,0.362-2.421,0.604-4.035c0,0,0.281-1.847,5.424-1.273c5.289,0.591,5.152,2.449,5.152,2.449
			c-0.063,0.859-0.095,1.288-0.158,2.146C126.812,157.363,126.485,161.847,125.83,170.814z M121.863,169.794
			c0.128-1.309,0.192-1.964,0.32-3.272c0.778-7.957,1.165-11.934,1.942-19.89c0,0,0.074-0.737-1.861-0.953
			c-1.787-0.2-1.881,0.538-1.881,0.538c-0.168,1.35-0.251,2.024-0.419,3.374c-0.983,7.888-1.474,11.832-2.457,19.72
			c0,0-0.094,0.765,2.182,1.017C121.791,170.56,121.863,169.794,121.863,169.794z"/>
		<path fill="#1399CD" d="M143.633,170.438c0.093,2.681-5.863,2.668-5.863,2.668c-2.702-0.002-4.054-0.03-6.753-0.142
			c0.39-9.437,0.779-18.874,1.168-28.311c0,0,1.105,0.105,5.314,0.118c5.464,0.017,5.323,2.22,5.323,2.22
			C143.147,156.371,143.308,161.06,143.633,170.438z M139.295,147.185c0,0-0.006-0.518-1.802-0.523
			c-1.946-0.006-1.945-0.019-1.945-0.019c-0.088,5.258-0.133,7.888-0.221,13.146c-0.077,4.563-0.115,6.844-0.191,11.407
			c0.949,0.016,1.423,0.019,2.373,0.021c0,0,2.021-0.006,2.014-0.648C139.432,161.214,139.386,156.538,139.295,147.185z"/>
		<path fill="#1399CD" d="M157.754,143.352c0.108,0.748,0.162,1.121,0.27,1.869c-2.853,0.411-4.284,0.581-7.149,0.845
			c0.419,4.544,0.627,6.817,1.047,11.361c1.613-0.149,2.42-0.235,4.03-0.427c0.082,0.69,0.124,1.036,0.206,1.727
			c-1.628,0.194-2.443,0.28-4.075,0.431c0.419,4.544,0.629,6.815,1.048,11.36c3.364-0.311,5.043-0.508,8.393-0.991
			c0.107,0.748,0.162,1.122,0.27,1.869c-5.045,0.727-7.582,0.995-12.657,1.335c-0.632-9.424-1.266-18.848-1.897-28.272
			C151.455,144.177,153.562,143.956,157.754,143.352z"/>
		<path fill="#1399CD" d="M175.477,168.843c-0.483-2.099-2.855-12.407-2.855-12.407s-0.043-0.558-2.054-0.123
			c-2.092,0.453-2.094,0.438-2.094,0.438c0.904,4.473,1.355,6.71,2.26,11.184c0.149,0.74,0.225,1.11,0.374,1.851
			c-1.611,0.326-2.418,0.479-4.035,0.765c-1.641-9.301-3.289-18.6-4.931-27.901c0,0,1.105-0.132,5.316-1.047
			c5.299-1.15,5.637,1.034,5.637,1.034s2.028,7.903,2.629,10.245c0.31,1.208-1.519,1.666-1.519,1.666
			c-0.001-0.005,2.167,0.859,2.167,0.859c1.277,4.977,1.916,7.465,3.192,12.441C177.933,168.267,177.116,168.466,175.477,168.843z
			 M167.785,143.464c-1.914,0.415-1.916,0.401-1.916,0.401c0.904,4.473,1.355,6.709,2.259,11.183
			c0.861-0.174,1.292-0.264,2.151-0.45c0,0,1.818-0.444,1.683-1.033s-2.295-9.978-2.295-9.978S169.624,143.065,167.785,143.464z"/>
	</g>
</g>
<g>
	<g>
		<path fill="#1399CD" d="M244.859,161.37c-0.099-0.672-2.055-0.335-2.055-0.335c-0.886,0.141-1.328,0.213-2.213,0.364
			c0.036,0.208,0.053,0.314,0.088,0.522c0.006,0.038,0.013,0.074,0.025,0.148c1.737,10.159,2.604,15.238,4.341,25.397
			c-1.372,0.234-2.057,0.358-3.425,0.623c-1.961-10.133-2.94-15.2-4.9-25.333c-0.129-0.667-2.071-0.242-2.071-0.242
			c-0.915,0.187-1.371,0.282-2.284,0.481c0.97,4.459,1.455,6.69,2.425,11.149c1.115,5.124,1.671,7.685,2.787,12.809
			c0.164,0.753,0.246,1.13,0.41,1.883c-2.61,0.568-3.329,0.762-3.329,0.762c-2.205-9.184-4.409-18.368-6.614-27.552
			c3.266-0.784,4.905-1.14,8.195-1.776c0.034-0.007,0.052-0.008,0.086-0.015c0,0,0-0.001,0.085-0.018
			c2.536-0.488,3.807-0.709,6.354-1.11c0,0,5.762-0.927,6.097,1.734c1.285,10.226,1.925,15.337,3.209,25.562
			c-1.379,0.173-2.068,0.267-3.444,0.47C247.12,176.684,246.368,171.58,244.859,161.37z"/>
		<path fill="#1399CD" d="M266.096,158.79c0.335,10.587,0.502,15.883,0.837,26.47c-1.356,0.043-2.033,0.072-3.389,0.144
			c-0.281-5.312-0.423-7.968-0.704-13.28c-1.596,0.084-2.395,0.136-3.989,0.257c0.403,5.304,0.607,7.956,1.011,13.26
			c-1.354,0.103-2.032,0.161-3.385,0.293c-1.028-10.543-1.542-15.815-2.569-26.358c0,0-0.196-2.054,5.877-2.448
			C266.03,156.723,266.096,158.79,266.096,158.79z M262.748,170.388c-0.229-4.315-0.341-6.474-0.569-10.789
			c-0.026-0.49-1.155-0.656-2.186-0.59c-1.116,0.072-2.129,0.375-2.092,0.865c0.328,4.309,0.492,6.464,0.82,10.773
			C260.332,170.525,261.136,170.473,262.748,170.388z"/>
		<path fill="#1399CD" d="M281.822,158.995c-1.684-0.089-2.524-0.123-4.209-0.174c-0.318,10.573-0.479,15.859-0.8,26.432
			c-1.356-0.041-2.034-0.054-3.392-0.066c0.095-10.577,0.145-15.866,0.238-26.443c-1.65-0.015-2.475-0.013-4.125,0.009
			c-0.01-0.756-0.016-1.134-0.025-1.89c4.967-0.065,7.45-0.018,12.412,0.245C281.882,157.862,281.862,158.24,281.822,158.995z"/>
		<path fill="#1399CD" d="M295.469,183.438c-0.092,0.628-0.137,0.943-0.228,1.571c0,0-0.276,1.86-5.412,1.283
			c-5.356-0.602-5.134-2.465-5.134-2.465c0.066-0.843,0.101-1.265,0.167-2.108c0.151-1.914,0.225-2.87,0.376-4.783
			c0.433-5.483,0.65-8.224,1.083-13.707c0.125-1.582,0.187-2.373,0.312-3.954c0,0,0.159-2.058,6.216-1.383
			c6.229,0.694,5.936,2.743,5.936,2.743c-0.094,0.643-0.139,0.964-0.232,1.607c-1.557-0.226-2.337-0.33-3.896-0.523
			c0.048-0.39,0.071-0.585,0.119-0.976c0.061-0.487-1.022-0.849-2.05-0.964c-1.113-0.125-2.166-0.002-2.215,0.487
			c-0.929,9.262-1.39,13.893-2.318,23.155c-0.053,0.526,0.81,0.879,1.775,0.987c0.891,0.1,1.89-0.045,1.955-0.571
			c0.043-0.345,0.061-0.516,0.104-0.861C293.404,183.147,294.093,183.239,295.469,183.438z"/>
		<path fill="#1399CD" d="M315.924,162.046c-1.242,5.172-1.864,7.758-3.106,12.931c-0.162,0.676-0.242,1.014-0.404,1.69
			c-1.242,5.172-1.863,7.758-3.104,12.931c-1.329-0.319-1.996-0.472-3.33-0.762c1.131-5.198,1.697-7.796,2.828-12.994
			c-1.571-0.342-2.357-0.504-3.934-0.809c-1.01,5.222-1.516,7.833-2.525,13.055c-1.339-0.259-2.012-0.38-3.354-0.61
			c1.6-9.309,3.192-18.618,4.789-27.927c1.581,0.271,2.369,0.415,3.945,0.72c-1.011,5.222-1.514,7.835-2.523,13.057
			c1.592,0.308,2.384,0.471,3.971,0.816c1.131-5.198,1.697-7.797,2.829-12.995C313.574,161.49,314.359,161.67,315.924,162.046z"/>
	</g>
</g>
<g>
	<path fill="#E5E5E5" d="M301.815,129.528h-1.551c0.026-0.213,0.049-0.473,0.066-0.779c0.019-0.306,0.033-0.556,0.044-0.75
		c0.01-0.194,0.016-0.323,0.016-0.389v-7.462h1.559v4.016c0.338-0.368,0.655-0.635,0.952-0.802c0.296-0.167,0.62-0.292,0.972-0.378
		c0.352-0.085,0.722-0.128,1.109-0.128c0.704,0,1.35,0.135,1.937,0.404c0.588,0.269,1.045,0.671,1.371,1.206
		c0.327,0.535,0.491,1.135,0.491,1.801c0,0.988-0.341,1.809-1.022,2.461s-1.632,0.979-2.851,0.979c-0.399,0-0.773-0.04-1.122-0.119
		c-0.35-0.08-0.661-0.198-0.935-0.354c-0.274-0.157-0.575-0.437-0.902-0.84l-0.05,0.471
		C301.877,129.125,301.849,129.346,301.815,129.528z M301.949,126.286c0,0.736,0.227,1.34,0.68,1.813s1.089,0.709,1.906,0.709
		c0.752,0,1.376-0.209,1.873-0.627c0.498-0.418,0.746-1.044,0.746-1.877c0-0.973-0.254-1.647-0.763-2.025
		c-0.508-0.377-1.113-0.566-1.814-0.566c-0.492,0-0.949,0.104-1.372,0.311c-0.423,0.207-0.737,0.515-0.945,0.924
		C302.053,125.355,301.949,125.801,301.949,126.286z"/>
	<path fill="#E5E5E5" d="M316.844,127.86h1.56v0.058c0,0.287-0.162,0.58-0.486,0.877c-0.325,0.298-0.754,0.525-1.286,0.68
		c-0.533,0.155-1.146,0.232-1.839,0.232c-1.401,0-2.482-0.32-3.244-0.959c-0.761-0.639-1.142-1.447-1.142-2.423
		c0-1,0.402-1.828,1.208-2.484c0.806-0.657,1.843-0.985,3.112-0.985c0.698,0,1.33,0.107,1.896,0.32s1.014,0.545,1.344,0.997
		s0.495,1.08,0.495,1.886v0.36h-6.513c0,0.693,0.262,1.265,0.787,1.714c0.524,0.449,1.252,0.674,2.183,0.674
		c0.669,0,1.156-0.092,1.464-0.276s0.461-0.388,0.461-0.613V127.86z M312.047,125.606h4.923v-0.128c0-0.302-0.103-0.596-0.307-0.88
		s-0.485-0.496-0.845-0.633c-0.359-0.138-0.778-0.207-1.257-0.207c-0.566,0-1.089,0.162-1.568,0.485
		C312.515,124.566,312.199,125.021,312.047,125.606z"/>
	<path fill="#E5E5E5" d="M326.467,128.61v0.906c-0.76,0.128-1.341,0.192-1.743,0.192c-0.581,0-1.105-0.082-1.572-0.244
		c-0.466-0.163-0.821-0.399-1.064-0.709s-0.364-0.804-0.364-1.482v-3.335h-1.626v-0.901h1.626v-1.534h1.559v1.534h2.733v0.901
		h-2.733v3.028c0,0.573,0.064,0.971,0.193,1.194c0.128,0.223,0.331,0.387,0.607,0.491s0.607,0.157,0.993,0.157
		C325.383,128.808,325.847,128.742,326.467,128.61z"/>
	<path fill="#E5E5E5" d="M333.978,129.528c-0.162-0.349-0.243-0.649-0.243-0.901c-0.664,0.469-1.231,0.766-1.702,0.892
		c-0.472,0.126-0.922,0.189-1.352,0.189c-0.725,0-1.347-0.158-1.866-0.473c-0.52-0.315-0.779-0.75-0.779-1.303
		c0-0.626,0.365-1.11,1.098-1.451s1.994-0.634,3.785-0.882l0.816-0.11v-0.732c0-0.399-0.186-0.679-0.557-0.84
		c-0.371-0.161-0.817-0.241-1.339-0.241c-0.624,0-1.111,0.099-1.461,0.296c-0.35,0.198-0.524,0.428-0.524,0.692v0.093h-1.693v-0.087
		c0-0.287,0.171-0.583,0.514-0.889c0.342-0.306,0.796-0.537,1.362-0.692c0.566-0.155,1.186-0.232,1.859-0.232
		c0.667,0,1.274,0.074,1.822,0.221c0.547,0.147,0.946,0.346,1.198,0.595c0.252,0.25,0.378,0.719,0.378,1.408v2.52
		c0,0.275,0.01,0.564,0.029,0.868s0.118,0.657,0.297,1.06H333.978z M333.734,126.257l-0.452,0.081
		c-1.524,0.267-2.499,0.52-2.925,0.76c-0.425,0.239-0.638,0.525-0.638,0.858c0,0.17,0.063,0.329,0.189,0.476
		c0.127,0.147,0.313,0.261,0.562,0.342c0.248,0.082,0.493,0.122,0.735,0.122c0.42,0,0.833-0.088,1.24-0.264
		c0.406-0.176,0.723-0.411,0.949-0.705c0.226-0.294,0.339-0.636,0.339-1.026V126.257z"/>
</g>
</svg>
